<svg width="45" height="59" viewBox="0 0 45 59" fill="none" xmlns="http://www.w3.org/2000/svg">
<path d="M44.7905 34.5437C44.1192 25.7445 40.0497 20.2304 36.4597 15.3645C33.1354 10.8598 30.2643 6.96971 30.2643 1.23127C30.2643 0.770334 30.0079 0.349037 29.6013 0.137813C29.1935 -0.0746791 28.7035 -0.0398784 28.3327 0.231383C22.941 4.11547 18.4423 10.6618 16.8709 16.908C15.7799 21.2566 15.6356 26.1453 15.6153 29.374C10.6361 28.3034 9.50818 20.8053 9.49627 20.7236C9.44019 20.3347 9.20416 19.9963 8.86077 19.8114C8.51383 19.629 8.10599 19.6158 7.75425 19.791C7.49315 19.9182 1.3454 23.063 0.987699 35.619C0.962631 36.0368 0.961487 36.4558 0.961487 36.8746C0.961487 49.073 10.8209 58.9981 22.9386 58.9981C22.9553 58.9993 22.9732 59.0017 22.9875 58.9981C22.9923 58.9981 22.997 58.9981 23.0029 58.9981C35.0909 58.9632 44.9157 49.0514 44.9157 36.8746C44.9157 36.2612 44.7905 34.5437 44.7905 34.5437ZM22.9386 56.5399C18.8989 56.5399 15.6129 53.016 15.6129 48.6842C15.6129 48.5366 15.6117 48.3877 15.6224 48.2053C15.6713 46.3785 16.0159 45.1314 16.3939 44.3019C17.1022 45.8335 18.3684 47.2415 20.4252 47.2415C21.1001 47.2415 21.6462 46.6917 21.6462 46.0124C21.6462 44.2624 21.682 42.2435 22.1148 40.4214C22.5 38.8058 23.4204 37.087 24.5865 35.7091C25.1052 37.4976 26.1163 38.945 27.1036 40.3578C28.5165 42.379 29.9771 44.4688 30.2335 48.0324C30.249 48.2436 30.2645 48.4561 30.2645 48.6842C30.2643 53.0159 26.9783 56.5399 22.9386 56.5399Z" fill="white"/>
</svg>
