<?xml version="1.0" encoding="UTF-8" standalone="no"?>
<svg
   xmlns:dc="http://purl.org/dc/elements/1.1/"
   xmlns:cc="http://creativecommons.org/ns#"
   xmlns:rdf="http://www.w3.org/1999/02/22-rdf-syntax-ns#"
   xmlns:svg="http://www.w3.org/2000/svg"
   xmlns="http://www.w3.org/2000/svg"
   viewBox="0 0 133.81332 202.14667"
   height="202.14667"
   width="133.81332"
   xml:space="preserve"
   id="svg2"
   version="1.1"><metadata
     id="metadata8"><rdf:RDF><cc:Work
         rdf:about=""><dc:format>image/svg+xml</dc:format><dc:type
           rdf:resource="http://purl.org/dc/dcmitype/StillImage" /></cc:Work></rdf:RDF></metadata><defs
     id="defs6" /><g
     transform="matrix(1.3333333,0,0,-1.3333333,0,202.14667)"
     id="g10"><g
       transform="scale(0.1)"
       id="g12"><path
         id="path14"
         style="fill:#ffffff;fill-opacity:1;fill-rule:evenodd;stroke:none"
         d="m 72.1719,1077.61 c -4.6563,0.92 -9.7656,1.54 -15.4141,1.77 V 491.559 h -0.039 v -38.278 l -9.2149,5.641 v 25.547 H 32.0898 V 466.25 H 6.23047 l -0.05859,-0.102 65.95702,-39.878 0.043,651.34" /><path
         id="path16"
         style="fill:#ffffff;fill-opacity:1;fill-rule:evenodd;stroke:none"
         d="m 94.2031,908.297 c 50.8909,-13.992 75.5039,-26.66 128.8279,-5.887 46.953,18.285 88.078,75.02 145.203,59.754 25.957,-6.934 69.555,-49.043 101.336,-74.539 22.434,-18.004 36.578,-24.828 59.196,-5.07 34.82,30.425 95.418,81.097 154.957,60.047 35.125,-12.422 73.047,-53.856 106.586,-73.86 37.078,-22.117 48.992,-19.656 90.398,-1.054 -81.668,-69.754 -111.922,11.984 -196.984,36.191 -47.203,13.437 -107.321,-27.66 -137.012,-54.707 l -42.512,-38.711 c -37.414,30.629 -76.472,61.117 -117.64,83.109 -60.551,32.352 -101.168,-3.707 -162.102,-8.836 -57.875,-4.875 -73.176,-8.711 -130.2539,23.563" /><path
         id="path18"
         style="fill:#ffffff;fill-opacity:1;fill-rule:evenodd;stroke:none"
         d="m 72.0938,426.289 c 95.6992,26.793 175.4062,31.949 234.3082,34.582 86.59,3.848 139.707,9.899 164.149,34.02 42.285,41.738 20.508,129.261 32.441,275.625 3.016,-51.239 19.02,-226.653 34.164,-264.778 12.157,-30.59 73.504,-36.226 103.922,-39.148 43.328,-4.149 86.738,-8.078 130.25,-9.25 44.356,-1.199 88.801,-0.371 133.102,2.129 l 37.722,2.14 10.477,336.133 16.215,0.18 1.211,-335.274 -19.309,-0.039 -0.051,-24.488 c -36.773,0.481 -79.957,1.789 -116.73,2.141 -37.719,0.359 -67.274,3.039 -104.985,3.91 -44.882,1.039 -133.207,4.687 -200.363,13.527 -79.406,10.442 -192.277,-6.168 -284.668,-10.527 -53.047,-2.5 -129.484,-18.793 -171.8552,-20.883" /><path
         id="path20"
         style="fill:#ffffff;fill-opacity:1;fill-rule:nonzero;stroke:none"
         d="m 84.1758,1000.81 c 5.7265,-2.103 10.7851,-4.779 15.4101,-7.767 v 69.487 c -4.6015,3.74 -9.6289,7.2 -15.4101,10.01 v -71.73" /><path
         id="path22"
         style="fill:#ffffff;fill-opacity:1;fill-rule:nonzero;stroke:none"
         d="m 111.586,984.117 c 5.309,-4.379 10.266,-8.851 15.41,-12.797 v 66.82 c -5.375,3.92 -10.301,8.68 -15.41,13.57 v -67.593" /><path
         id="path24"
         style="fill:#ffffff;fill-opacity:1;fill-rule:nonzero;stroke:none"
         d="m 139,963.664 c 4.645,-2.285 9.688,-3.926 15.414,-4.601 v 69.617 c -5.769,0.03 -10.828,1.05 -15.414,2.79 v -67.806" /><path
         id="path26"
         style="fill:#ffffff;fill-opacity:1;fill-rule:nonzero;stroke:none"
         d="m 166.414,1029.89 v -70.831 c 4.68,0.496 9.785,1.554 15.41,3.3 v 72.421 c -2.215,-1.06 -4.457,-1.96 -6.726,-2.67 -3.051,-0.94 -5.934,-1.67 -8.684,-2.22" /><path
         id="path28"
         style="fill:#ffffff;fill-opacity:1;fill-rule:nonzero;stroke:none"
         d="m 193.828,1042.22 v -75.271 c 5.293,2.395 10.414,5.196 15.414,8.301 v 81.25 c -5.043,-5.45 -10.164,-10.28 -15.414,-14.28" /><path
         id="path30"
         style="fill:#ffffff;fill-opacity:1;fill-rule:nonzero;stroke:none"
         d="m 221.238,983.383 c 5.215,3.801 10.332,7.855 15.418,12.012 v 96.125 c -5.117,-7.24 -10.242,-14.28 -15.418,-20.85 v -87.287" /><path
         id="path32"
         style="fill:#ffffff;fill-opacity:1;fill-rule:nonzero;stroke:none"
         d="m 248.656,1005.36 c 5.098,4.27 10.215,8.52 15.41,12.64 v 112.33 c -5.203,-7.03 -10.328,-14.32 -15.41,-21.63 v -103.34" /><path
         id="path34"
         style="fill:#ffffff;fill-opacity:1;fill-rule:nonzero;stroke:none"
         d="m 276.07,1145.75 v -118.67 c 5.004,3.57 10.125,6.92 15.414,9.94 v 125.51 c -5.269,-5.05 -10.394,-10.72 -15.414,-16.78" /><path
         id="path36"
         style="fill:#ffffff;fill-opacity:1;fill-rule:nonzero;stroke:none"
         d="m 303.48,1043.12 c 4.965,2.2 10.09,4.06 15.418,5.51 v 132.9 c -5.3,-2.21 -10.425,-5.22 -15.418,-8.86 v -129.55" /><path
         id="path38"
         style="fill:#ffffff;fill-opacity:1;fill-rule:nonzero;stroke:none"
         d="m 330.898,1185.07 v -133.96 c 3.004,0.42 6.075,0.71 9.215,0.85 2.082,0.09 4.149,0.1 6.196,0.05 v 133.35 c -2.969,0.39 -5.981,0.55 -9.047,0.41 -2.149,-0.09 -4.27,-0.33 -6.364,-0.7" /><path
         id="path40"
         style="fill:#ffffff;fill-opacity:1;fill-rule:nonzero;stroke:none"
         d="m 358.313,1050.87 c 5.242,-0.86 10.375,-2.14 15.414,-3.81 v 127.58 c -5.032,3.25 -10.157,5.88 -15.414,7.78 v -131.55" /><path
         id="path42"
         style="fill:#ffffff;fill-opacity:1;fill-rule:nonzero;stroke:none"
         d="m 385.723,1165.66 v -123.3 c 5.218,-2.34 10.347,-5.04 15.414,-7.99 v 116.46 c -5.063,5.39 -10.192,10.39 -15.414,14.83" /><path
         id="path44"
         style="fill:#ffffff;fill-opacity:1;fill-rule:nonzero;stroke:none"
         d="m 413.141,1026.91 c 5.172,-3.42 10.297,-7.01 15.41,-10.7 v 101.99 c -5.117,6.51 -10.246,12.93 -15.41,19.07 v -110.36" /><path
         id="path46"
         style="fill:#ffffff;fill-opacity:1;fill-rule:nonzero;stroke:none"
         d="m 440.551,1007.45 c 5.125,-3.76 10.25,-7.524 15.418,-11.192 v 87.422 c -5.184,6.21 -10.309,12.66 -15.418,19.18 v -95.41" /><path
         id="path48"
         style="fill:#ffffff;fill-opacity:1;fill-rule:nonzero;stroke:none"
         d="m 467.969,1069.93 v -81.903 c 5.074,-3.332 10.199,-6.492 15.41,-9.386 v 76.069 c -5.231,4.6 -10.356,9.73 -15.41,15.22" /><path
         id="path50"
         style="fill:#ffffff;fill-opacity:1;fill-rule:nonzero;stroke:none"
         d="m 495.383,972.555 c 5.039,-2.293 10.168,-4.282 15.414,-5.891 v 70.066 c -5.266,2.2 -10.395,5.09 -15.414,8.55 v -72.725" /><path
         id="path52"
         style="fill:#ffffff;fill-opacity:1;fill-rule:nonzero;stroke:none"
         d="m 522.793,1033 v -69.277 c 5.023,-0.918 10.152,-1.473 15.414,-1.575 v 70.092 c -1.848,-0.24 -3.691,-0.38 -5.519,-0.34 -3.356,0.06 -6.649,0.45 -9.895,1.1" /><path
         id="path54"
         style="fill:#ffffff;fill-opacity:1;fill-rule:nonzero;stroke:none"
         d="m 550.211,963.621 c 5.043,1.258 10.184,3.281 15.41,5.848 v 74.331 c -5.207,-3.37 -10.344,-6.19 -15.41,-8.26 v -71.919" /><path
         id="path56"
         style="fill:#ffffff;fill-opacity:1;fill-rule:nonzero;stroke:none"
         d="m 577.621,976.137 c 5.067,3.093 10.207,6.535 15.414,10.156 v 78.517 c -5.199,-4.35 -10.336,-8.56 -15.414,-12.45 v -76.223" /><path
         id="path58"
         style="fill:#ffffff;fill-opacity:1;fill-rule:nonzero;stroke:none"
         d="m 605.039,994.758 c 5.078,3.609 10.215,7.242 15.41,10.762 v 81.79 c -5.195,-4 -10.332,-8.2 -15.41,-12.43 v -80.122" /><path
         id="path60"
         style="fill:#ffffff;fill-opacity:1;fill-rule:nonzero;stroke:none"
         d="m 632.449,1013.29 c 5.09,3.12 10.231,6.02 15.414,8.56 v 83.24 c -5.191,-2.6 -10.328,-5.7 -15.414,-9.12 v -82.68" /><path
         id="path62"
         style="fill:#ffffff;fill-opacity:1;fill-rule:nonzero;stroke:none"
         d="m 659.863,1026.96 c 5.098,1.84 10.239,3.24 15.414,4.06 v 82.32 c -5.187,-0.41 -10.328,-1.53 -15.414,-3.23 v -83.15" /><path
         id="path64"
         style="fill:#ffffff;fill-opacity:1;fill-rule:nonzero;stroke:none"
         d="m 687.277,1031.86 c 5.106,-0.13 10.243,-0.88 15.414,-2.4 v 78.85 c -5.187,2.41 -10.328,3.91 -15.414,4.65 v -81.1" /><path
         id="path66"
         style="fill:#ffffff;fill-opacity:1;fill-rule:nonzero;stroke:none"
         d="m 714.691,1024.6 c 5.235,-2.61 10.364,-5.56 15.418,-8.78 v 75.28 c -5.039,3.91 -10.168,7.52 -15.418,10.73 v -77.23" /><path
         id="path68"
         style="fill:#ffffff;fill-opacity:1;fill-rule:nonzero;stroke:none"
         d="m 742.105,1007.59 c 5.192,-3.76 10.317,-7.727 15.415,-11.785 v 71.085 c -5.114,4.9 -10.235,9.7 -15.415,14.25 v -73.55" /><path
         id="path70"
         style="fill:#ffffff;fill-opacity:1;fill-rule:nonzero;stroke:none"
         d="m 769.523,986.102 c 5.125,-4.18 10.254,-8.368 15.411,-12.438 v 66.656 c -5.192,4.9 -10.317,9.91 -15.411,14.9 v -69.118" /><path
         id="path72"
         style="fill:#ffffff;fill-opacity:1;fill-rule:nonzero;stroke:none"
         d="m 796.934,964.504 c 5.074,-3.715 10.199,-7.242 15.41,-10.469 v 62.695 c -5.254,3.97 -10.379,8.2 -15.41,12.62 v -64.846" /><path
         id="path74"
         style="fill:#ffffff;fill-opacity:1;fill-rule:nonzero;stroke:none"
         d="m 824.348,947.27 c 5.031,-2.551 10.16,-4.774 15.414,-6.571 v 59.082 c -5.297,2.529 -10.422,5.419 -15.414,8.599 v -61.11" /><path
         id="path76"
         style="fill:#ffffff;fill-opacity:1;fill-rule:nonzero;stroke:none"
         d="m 851.762,937.395 c 5.011,-1.04 10.136,-1.684 15.41,-1.832 v 55.148 c -5.297,1 -10.434,2.371 -15.41,4.109 v -57.425" /><path
         id="path78"
         style="fill:#ffffff;fill-opacity:1;fill-rule:nonzero;stroke:none"
         d="m 879.176,989.152 v -53.093 c 5.004,0.539 10.137,1.515 15.414,2.988 v 50.168 c -5.297,-0.391 -10.434,-0.41 -15.414,-0.063" /><path
         id="path80"
         style="fill:#ffffff;fill-opacity:1;fill-rule:nonzero;stroke:none"
         d="m 906.594,943.168 c 5,2.02 10.136,4.48 15.41,7.422 v 43.879 c -5.289,-1.594 -10.422,-2.817 -15.41,-3.711 v -47.59" /><path
         id="path82"
         style="fill:#ffffff;fill-opacity:1;fill-rule:nonzero;stroke:none"
         d="m 934.004,957.918 c 5.012,3.34 10.148,7.129 15.41,11.336 v 36.206 c -5.277,-2.61 -10.41,-4.87 -15.41,-6.823 v -40.719" /><path
         id="path84"
         style="fill:#ffffff;fill-opacity:1;fill-rule:nonzero;stroke:none"
         d="m 976.832,1021.31 v 3.05 h -0.019 z" /><path
         id="path86"
         style="fill:#ffffff;fill-opacity:1;fill-rule:nonzero;stroke:none"
         d="m 961.418,979.434 c 5.02,4.496 10.152,9.402 15.414,14.711 v 27.165 c -5.269,-3.47 -10.394,-6.59 -15.414,-9.44 v -32.436" /><path
         id="path88"
         style="fill:#ffffff;fill-opacity:1;fill-rule:nonzero;stroke:none"
         d="m 986.5,1024.86 -0.355,-25.735 13.605,34.015 z" /><path
         id="path90"
         style="fill:#ffffff;fill-opacity:1;fill-rule:evenodd;stroke:none"
         d="m 850.875,1253.35 c -12.105,49.13 1.605,51.82 -42.082,69.17 38.199,12.29 29.266,12.98 42.617,52.3 13.586,-43.76 0.879,-38.67 41.731,-52.02 -41.778,-16.94 -30.289,-20.31 -42.266,-69.45 z M 0,1516.08 V 585.738 H 15.4141 V 1196.1 c 57.8984,-15.43 85.8479,-113.01 145.8519,-90.57 60.222,22.51 113.824,235.67 183.937,239.45 78.203,4.23 117.59,-229.26 197.16,-231.09 52.602,-1.21 104.61,148.48 172.25,110.56 86.149,-48.3 54.196,-245.087 288.977,-115 v 406.63 H 0" /><path
         id="path92"
         style="fill:#a7a5a6;fill-opacity:1;fill-rule:nonzero;stroke:none"
         d="M 7.02344,3.21875 V 265.27 H 86.207 L 133.754,86.5195 180.762,265.27 h 79.371 V 3.21875 h -49.16 V 209.5 L 158.961,3.21875 H 108.012 L 56.1758,209.5 V 3.21875 H 7.02344" /><path
         id="path94"
         style="fill:#a7a5a6;fill-opacity:1;fill-rule:nonzero;stroke:none"
         d="m 451.566,106.898 -36.101,97.231 -35.391,-97.231 z M 548.988,3.21875 H 491.43 L 468.551,62.75 H 363.805 L 342.18,3.21875 H 286.051 L 388.113,265.27 h 55.95 L 548.988,3.21875" /><path
         id="path96"
         style="fill:#a7a5a6;fill-opacity:1;fill-rule:nonzero;stroke:none"
         d="m 579.73,265.27 h 177.5 V 221.301 H 632.641 V 3.21875 H 579.73 V 265.27" /><path
         id="path98"
         style="fill:#a7a5a6;fill-opacity:1;fill-rule:nonzero;stroke:none"
         d="m 757.945,265.27 h 59.164 l 61.137,-136.032 52.195,136.032 h 55.235 L 897.191,66.1406 C 887.539,44.5703 877.711,28.1602 867.699,16.8984 857.691,5.62891 844.758,0 828.91,0 813.297,0 801.086,1.01953 792.266,3.03906 V 42.3711 c 7.511,-0.4805 14.3,-0.7227 20.382,-0.7227 12.27,0 21.059,2.2305 26.36,6.711 5.305,4.4609 10.398,14.082 15.285,28.8594 L 757.945,265.27" /><path
         id="path100"
         style="fill:#ffffff;fill-opacity:1;fill-rule:nonzero;stroke:none"
         d="M 18.3008,3.21875 V 265.27 H 97.4844 L 145.035,86.5195 192.047,265.27 H 271.41 V 3.21875 H 222.258 V 209.5 L 170.238,3.21875 H 119.297 L 67.457,209.5 V 3.21875 H 18.3008" /><path
         id="path102"
         style="fill:#ffffff;fill-opacity:1;fill-rule:nonzero;stroke:none"
         d="m 462.852,106.898 -36.11,97.231 -35.39,-97.231 z M 560.27,3.21875 H 502.715 L 479.836,62.75 H 375.09 L 353.457,3.21875 H 297.328 L 399.395,265.27 h 55.949 L 560.27,3.21875" /><path
         id="path104"
         style="fill:#ffffff;fill-opacity:1;fill-rule:nonzero;stroke:none"
         d="m 591.016,265.27 h 177.5 V 221.301 H 643.926 V 3.21875 h -52.91 V 265.27" /><path
         id="path106"
         style="fill:#ffffff;fill-opacity:1;fill-rule:nonzero;stroke:none"
         d="m 769.23,265.27 h 59.165 l 61.132,-136.032 52.192,136.032 h 55.234 L 908.477,66.1406 C 898.82,44.5703 888.988,28.1602 878.98,16.8984 868.969,5.62891 856.039,0 840.191,0 824.578,0 812.363,1.01953 803.551,3.03906 V 42.3711 c 7.504,-0.4805 14.297,-0.7227 20.375,-0.7227 12.269,0 21.058,2.2305 26.367,6.711 5.297,4.4609 10.395,14.082 15.281,28.8594 L 769.23,265.27" /></g></g></svg>