<svg width="42" height="58" viewBox="0 0 42 58" fill="none" xmlns="http://www.w3.org/2000/svg">
<path d="M23.8386 1.99854C22.2704 -0.71272 20.6099 -0.619228 19.0418 1.99854C11.8465 12.8436 0.961487 29.1111 0.961487 37.2449C0.961487 42.9479 3.26764 48.1834 6.95749 51.923C10.6473 55.6627 15.8131 58 21.4402 58C27.0672 58 32.233 55.6627 35.9228 51.923C39.6127 48.1834 41.9188 42.9479 41.9188 37.2449C41.9188 29.0176 31.0338 12.8436 23.8386 1.99854ZM36.1996 46.5005C34.7236 48.9313 32.602 51.0816 30.0191 52.5775C28.8199 53.2319 27.3439 52.858 26.6982 51.6426C25.9602 50.3337 26.4215 48.8378 27.6207 48.1834C29.4656 47.155 30.9415 45.6591 32.0485 43.8828C33.1554 42.1064 33.8012 40.0496 33.8934 37.8993C33.9856 36.4969 35.0926 35.4685 36.4763 35.562C37.86 35.6555 38.8747 36.7774 38.7825 38.1798C38.598 41.1715 37.6755 43.9763 36.1996 46.5005Z" fill="white"/>
</svg>
