<svg width="56" height="60" viewBox="0 0 56 60" fill="none" xmlns="http://www.w3.org/2000/svg">
<path d="M55.2854 43.5863L49.7676 40.4125L54.9623 37.403C55.5581 37.055 55.7592 36.2897 55.4119 35.6933L54.1538 33.5343C53.8062 32.9379 53.0416 32.7366 52.4459 33.0844L44.768 37.5369L41.3484 34.4871L48.9243 31.1438C49.3755 30.9436 49.6682 30.4956 49.6682 30C49.6682 29.5044 49.3755 29.0564 48.9243 28.8563L41.2459 25.4675L44.7685 23.4711L52.4827 27.9676C53.0784 28.3155 53.843 28.1141 54.1903 27.5177L55.4484 25.3587C55.796 24.7623 55.5947 23.997 54.999 23.649L49.7638 20.598L55.2854 17.422C55.8842 17.0767 56.0893 16.3123 55.7436 15.7144L54.4917 13.5493C54.146 12.9514 53.3804 12.7466 52.7816 13.0918L47.2545 16.2709L47.2483 10.2104C47.2453 9.52008 46.6837 8.96297 45.9941 8.96613L43.4969 8.97727C42.8073 8.98031 42.2508 9.54246 42.2538 10.2328L42.2668 19.1398L38.4298 21.3142L38.4224 13.8886C38.476 13.3942 38.2297 12.9144 37.7981 12.6691C37.364 12.4226 36.8274 12.4567 36.4323 12.7559L30.9374 16.5628V11.4493L38.6919 7.00582C39.2906 6.66328 39.4987 5.89969 39.1565 5.30039L37.9178 3.13008C37.5756 2.53066 36.8128 2.32242 36.2142 2.66484L30.9377 5.68898V1.25004C30.9376 0.55957 30.3784 0 29.6889 0H28.4402H27.1915C26.5018 0 25.9427 0.559687 25.9427 1.25004V5.70727L20.6662 2.66496C20.0674 2.32242 19.3047 2.53066 18.9626 3.13008L17.7238 5.30039C17.3816 5.8998 17.5896 6.6634 18.1884 7.00582L25.9428 11.4724V16.5374L20.5017 12.7823C20.2798 12.6138 20.0139 12.5284 19.7481 12.5284C19.7285 12.5259 19.7114 12.5272 19.6993 12.5284C19.009 12.5284 18.4505 13.0875 18.4505 13.7784C18.4505 13.947 18.4505 21.5197 18.4505 21.5197L14.6301 18.141L14.663 9.18082C14.6661 8.49047 14.1095 7.92832 13.42 7.92527L10.9231 7.91414C10.2334 7.91109 9.67189 8.4682 9.66873 9.15844L9.6466 15.2745L4.09874 12.0836C3.49995 11.7384 2.73435 11.9432 2.38865 12.5411L1.13675 14.7061C0.791056 15.304 0.996155 16.0685 1.59495 16.4137L7.11283 19.5875L1.91805 22.597C1.3223 22.945 1.12118 23.7103 1.46851 24.3067L2.72662 26.4657C3.07419 27.0621 3.83874 27.2634 4.43449 26.9156L12.1124 22.4631L15.532 25.5129L7.95606 28.8563C7.50488 29.0564 7.21222 29.5044 7.21222 30C7.21222 30.4956 7.50488 30.9436 7.95606 31.1438L15.6345 34.5325L12.1119 36.5289L4.39773 32.0324C3.80198 31.6845 3.03743 31.8859 2.69009 32.4823L1.43199 34.6414C1.08442 35.2378 1.28566 36.0032 1.88141 36.3511L7.11658 39.4021L1.59495 42.5781C0.996155 42.9234 0.791056 43.6879 1.13675 44.2857L2.38865 46.4508C2.73435 47.0487 3.50007 47.2535 4.09874 46.9083L9.62588 43.7292L9.63208 49.7897C9.63513 50.48 10.1967 51.0371 10.8863 51.0341L13.3835 51.023C14.0731 51.0199 14.6296 50.4578 14.6265 49.7674L14.6135 40.8604L18.4505 38.6859L18.4579 46.1115C18.4043 46.6059 18.6506 47.0857 19.0822 47.331C19.5163 47.5775 20.0529 47.5434 20.448 47.2443L25.9428 43.4373V48.5507L18.1884 52.9942C17.5896 53.3367 17.3816 54.1003 17.7238 54.6996L18.9626 56.8699C19.3047 57.4693 20.0675 57.6776 20.6662 57.3352L25.9427 54.311V58.75C25.9427 59.4404 26.5018 60 27.1915 60H28.4402H29.6889C30.3786 60 30.9377 59.4403 30.9377 58.75V54.2927L36.2142 57.335C36.813 57.6776 37.5756 57.4693 37.9178 56.8699L39.1566 54.6996C39.4988 54.1002 39.2908 53.3365 38.692 52.9942L30.9376 48.5276V43.4626L36.3786 47.2177C36.6006 47.3862 36.8665 47.4716 37.1323 47.4716C37.1519 47.4741 37.169 47.4728 37.1811 47.4716C37.8713 47.4716 38.4299 46.9125 38.4299 46.2216C38.4299 46.053 38.4299 38.4803 38.4299 38.4803L42.2503 41.859L42.2174 50.8192C42.2142 51.5095 42.7709 52.0717 43.4605 52.0747L45.9574 52.0859C46.6471 52.0889 47.2086 51.5318 47.2118 50.8414L47.2339 44.7254L52.7818 47.9163C53.3805 48.2614 54.1462 48.0567 54.4919 47.4588L55.7438 45.2938C56.0893 44.696 55.8841 43.9315 55.2854 43.5863Z" fill="white"/>
</svg>
